<svg xmlns="http://www.w3.org/2000/svg" viewBox="0 0 600 800" width="600" height="800" aria-hidden="true">
  <defs>
    <linearGradient id="shade" x1="0" y1="0" x2="0" y2="1">
      <stop offset="0" stop-color="#9bb3d1" stop-opacity=".12"/>
      <stop offset="1" stop-color="#9bb3d1" stop-opacity=".06"/>
    </linearGradient>
  </defs>
  <!-- Simplified mask silhouette for subtle watermark usage -->
  <g fill="url(#shade)" stroke="#9bb3d1" stroke-opacity=".08" stroke-width="6">
    <path d="M300 70c-120 0-200 78-200 190 0 180 60 340 200 420 140-80 200-240 200-420 0-112-80-190-200-190z"/>
    <path d="M190 270c24-22 64-36 110-36s86 14 110 36" fill="none"/>
    <path d="M210 330c18 8 44 12 90 12s72-4 90-12" fill="none"/>
    <path d="M210 380c22 18 44 26 90 26s68-8 90-26" fill="none"/>
    <path d="M170 312c-8 24-2 54 14 70 14 14 40 10 56-8 10-12 12-32 8-46" fill="none"/>
    <path d="M430 312c8 24 2 54-14 70-14 14-40 10-56-8-10-12-12-32-8-46" fill="none"/>
    <circle cx="230" cy="318" r="6"/>
    <circle cx="370" cy="318" r="6"/>
    <path d="M240 460c18 20 36 28 60 28s42-8 60-28" fill="none"/>
  </g>
</svg>

